<svg xmlns="http://www.w3.org/2000/svg">

    <symbol  viewBox="0 0 85 23" id="logo" >
        <path d="M21 19.875a5.571 5.571 0 0 1-2.075 1.6c-.8.367-1.683.55-2.65.55-1.3 0-2.475-.283-3.525-.85-1.05-.55-2.25-1.533-3.6-2.95-1.583-.2-3-.708-4.25-1.525A8.759 8.759 0 0 1 2 13.55c-.683-1.3-1.025-2.733-1.025-4.3 0-1.717.408-3.258 1.225-4.625a8.805 8.805 0 0 1 3.425-3.25C7.092.592 8.733.2 10.55.2c1.817 0 3.45.392 4.9 1.175a8.804 8.804 0 0 1 3.425 3.25c.833 1.367 1.25 2.908 1.25 4.625 0 2.033-.575 3.817-1.725 5.35-1.133 1.533-2.642 2.6-4.525 3.2.417.433.817.742 1.2.925.4.2.825.3 1.275.3 1.083 0 2.033-.433 2.85-1.3l1.8 2.15ZM5.075 9.25c0 1.083.233 2.05.7 2.9a5.292 5.292 0 0 0 1.975 2c.833.467 1.767.7 2.8.7s1.967-.233 2.8-.7a5.113 5.113 0 0 0 1.95-2c.483-.85.725-1.817.725-2.9s-.242-2.05-.725-2.9a4.942 4.942 0 0 0-1.95-1.975c-.833-.483-1.767-.725-2.8-.725s-1.967.242-2.8.725A5.112 5.112 0 0 0 5.775 6.35c-.467.85-.7 1.817-.7 2.9ZM30.744.5c1.55 0 2.891.258 4.025.775 1.15.517 2.033 1.25 2.65 2.2.616.95.925 2.075.925 3.375 0 1.283-.309 2.408-.925 3.375-.617.95-1.5 1.683-2.65 2.2-1.134.5-2.475.75-4.025.75h-3.525V18h-4.05V.5h7.575Zm-.225 9.375c1.216 0 2.141-.258 2.775-.775.633-.533.95-1.283.95-2.25 0-.983-.317-1.733-.95-2.25-.634-.533-1.559-.8-2.775-.8h-3.3v6.075h3.3ZM41.235.5h4.05V18h-4.05V.5Zm16.578 17.8c-1.783 0-3.4-.383-4.85-1.15a8.91 8.91 0 0 1-3.4-3.225c-.816-1.383-1.225-2.942-1.225-4.675 0-1.733.409-3.283 1.225-4.65a8.67 8.67 0 0 1 3.4-3.225C54.413.592 56.038.2 57.838.2c1.517 0 2.884.267 4.1.8a8.216 8.216 0 0 1 3.1 2.3l-2.6 2.4c-1.183-1.367-2.65-2.05-4.4-2.05-1.083 0-2.05.242-2.9.725a5.064 5.064 0 0 0-2 1.975c-.466.85-.7 1.817-.7 2.9s.234 2.05.7 2.9a5.24 5.24 0 0 0 2 2c.85.467 1.817.7 2.9.7 1.75 0 3.217-.692 4.4-2.075l2.6 2.4a8.104 8.104 0 0 1-3.1 2.325c-1.233.533-2.608.8-4.125.8Zm16.335-7.175-2.35 2.45V18h-4.025V.5h4.025v8.175L79.548.5h4.5l-7.25 7.8 7.675 9.7h-4.725l-5.6-6.875Z" />
    </symbol> 
    

    <symbol viewBox="0 0 24 25" id="basket">
           <path xmlns="http://www.w3.org/2000/svg" d="m4.086 6.046-3.6-3.54L2.056.96l3.6 3.542h16.92a1.125 1.125 0 0 1 .89.44 1.083 1.083 0 0 1 .173.965l-2.664 8.737a1.092 1.092 0 0 1-.4.563c-.192.14-.425.216-.664.216H6.306v2.184h12.211v2.184H5.196a1.12 1.12 0 0 1-.785-.32 1.083 1.083 0 0 1-.325-.772V6.046Zm2.22.64v6.553h12.78l1.998-6.553H6.306ZM5.751 24.16a1.68 1.68 0 0 1-1.177-.48 1.625 1.625 0 0 1-.488-1.158c0-.435.175-.851.488-1.159a1.68 1.68 0 0 1 1.177-.48c.442 0 .865.173 1.177.48.313.308.488.724.488 1.159 0 .434-.175.851-.488 1.158a1.68 1.68 0 0 1-1.177.48Zm13.321 0c-.441 0-.865-.173-1.177-.48a1.625 1.625 0 0 1-.488-1.158c0-.435.175-.851.488-1.159.312-.307.736-.48 1.177-.48.442 0 .865.173 1.178.48a1.625 1.625 0 0 1 0 2.317c-.313.307-.736.48-1.178.48Z" />
    </symbol>

    
    <symbol viewBox="0 0 21 17" id="delete">
        <path d="M15.885 3.4h4.982v1.7h-1.993v11.05a.792.792 0 0 1-.292.601 1.09 1.09 0 0 1-.704.249H3.928a1.09 1.09 0 0 1-.704-.249.792.792 0 0 1-.292-.601V5.1H.939V3.4h4.982V.85c0-.225.105-.442.292-.601C6.4.089 6.653 0 6.917 0h7.971c.265 0 .518.09.705.249.187.16.292.376.292.601V3.4Zm.996 1.7H4.925v10.2H16.88V5.1Zm-4.57 5.1 1.762 1.503-1.409 1.202-1.761-1.503-1.762 1.503-1.409-1.202L9.494 10.2 7.732 8.697l1.41-1.202 1.76 1.503 1.763-1.503 1.408 1.202-1.761 1.503ZM7.915 1.7v1.7h5.978V1.7H7.914Z" 
        fill="#DF6464"/>
    </symbol>

    <symbol viewBox="0 0 23 20" id="favorite">
        <path d="M11.49 1.65a6.68 6.68 0 0 1 9.06.25 6.42 6.42 0 0 1 .26 8.91L11.48 20l-9.32-9.19a6.42 6.42 0 0 1 .26-8.9 6.68 6.68 0 0 1 9.07-.26Zm7.5 1.78a4.45 4.45 0 0 0-6.03-.17l-1.47 1.3-1.47-1.3a4.45 4.45 0 0 0-6.05.17 4.28 4.28 0 0 0-.2 5.9l7.72 7.6 7.72-7.6a4.28 4.28 0 0 0-.21-5.9Z"/>
    </symbol>

    
    <symbol viewBox="0 0 20 20" id="language" fill="none">
        <g stroke="#838383" stroke-width="1.5" stroke-linecap="round" stroke-linejoin="round" clip-path="url(#a)">
        <path d="M1.67 10a8.33 8.33 0 1 0 16.66 0 8.33 8.33 0 0 0-16.66 0Z"/><path d="M10.83 1.7s2.5 3.3 2.5 8.3c0 5-2.5 8.3-2.5 8.3M9.17 18.3S6.67 15 6.67 10c0-5 2.5-8.3 2.5-8.3M2.2 12.92h15.6M2.2 7.08h15.6"/></g><defs><clipPath id="a"><path fill="#fff" d="M0 0h20v20H0z"/></clipPath></defs>
    </symbol>

    
    <symbol viewBox="0 0 30 30" id="minus">
        <circle cx="15" cy="15" r="15"/><path d="M8 14h14v2H8v-2Z" fill="#fff"/>
    </symbol>

    
    <symbol viewBox="0 0 31 30" id="plus">
        <circle cx="15.206" cy="15" r="15" /><path d="M14.206 14V8h2v6h6v2h-6v6h-2v-6h-6v-2h6Z" fill="#fff"/>
    </symbol>

    <symbol viewBox="0 0 31 31" id="telegram">
        <path d="M15.05 27.09a12.04 12.04 0 1 0 0-24.08 12.04 12.04 0 0 0 0 24.08Zm0 3.01C6.738 30.1 0 23.362 0 15.05 0 6.738 6.738 0 15.05 0 23.362 0 30.1 6.738 30.1 15.05c0 8.312-6.738 15.05-15.05 15.05Zm-4.68-13.29L6.61 15.64c-.813-.249-.817-.809.182-1.21l14.648-5.66c.85-.346 1.332.092 1.057 1.19l-2.494 11.769c-.175.838-.679 1.038-1.379.651l-3.839-2.841-1.79 1.728c-.183.177-.332.33-.615.367-.281.039-.513-.045-.683-.512l-1.31-4.32-.018.011v-.001Z" />
    </symbol>

        
    <symbol viewBox="0 0 31 21" id="vk">
        <path d="M0 3C0 1.96.575 1.401 1.725 1.32l4.432.03c.297 0 .496.153.595.459.456 1.526.966 2.844 1.531 3.954.566 1.109 1.304 2.386 2.216 3.831.08.184.208.275.387.275.139 0 .248-.071.327-.213l.09-.336.03-5.282c0-.367-.085-.611-.254-.733-.168-.122-.48-.214-.937-.275-.357-.061-.535-.285-.535-.672 0-.081.01-.142.03-.183C10.053.852 11.243.19 13.206.19L14.87.16c.754 0 1.379.193 1.874.58.496.387.744.997.744 1.832v6.93c.139.103.268.154.387.154.297 0 .555-.184.773-.55 2.181-3.135 3.36-5.231 3.54-6.29 0-.02.02-.071.059-.152.139-.306.367-.57.684-.794.317-.224.595-.377.833-.458a.578.578 0 0 1 .267-.061h4.61l.298.03c.397 0 .704.194.922.58.08.122.134.255.164.397.03.143.05.285.06.428.009.142.014.224.014.244v.214c-.139.834-.49 1.725-1.056 2.671-.565.947-1.284 1.97-2.156 3.069-.873 1.099-1.418 1.822-1.636 2.168-.179.244-.268.468-.268.671 0 .163.08.346.238.55l4.343 5.618c.238.326.357.682.357 1.069 0 .468-.179.855-.536 1.16a2.191 2.191 0 0 1-1.279.519l-.505.03H23.08c-.02 0-.06.006-.12.016a.89.89 0 0 1-.118.015c-.436 0-.843-.194-1.22-.58-.139-.163-1.07-1.364-2.796-3.603a1.6 1.6 0 0 0-.416-.397c-.08.326-.183.794-.312 1.405-.13.61-.223 1.048-.283 1.312l-.09.52c-.197.712-.614 1.14-1.248 1.282l-.417.03h-2.915c-1.645 0-3.286-.773-4.922-2.32-1.636-1.547-3.108-3.547-4.417-6C2.498 9.996 1.28 7.142.15 3.885.049 3.62 0 3.325 0 2.999Zm17.876 7.907c-.417 0-.794-.117-1.13-.35a1.11 1.11 0 0 1-.506-.963V2.572c0-.407-.1-.697-.298-.87-.198-.173-.545-.26-1.04-.26l-1.696.061c-.853 0-1.497.153-1.933.458.872.428 1.308 1.12 1.308 2.077V9.41c-.04.51-.238.931-.595 1.267-.357.336-.753.504-1.19.504-.594 0-1.05-.295-1.367-.885-1.547-2.402-2.697-4.682-3.45-6.84l-.268-.793-3.956-.031c-.258 0-.402.015-.431.046-.03.03-.045.117-.045.26 0 .183.02.376.06.58l.624 1.71c1.666 4.416 3.475 7.897 5.428 10.441 1.953 2.545 3.872 3.817 5.755 3.817h2.975c.119 0 .208-.036.267-.107.06-.071.11-.208.15-.412l.059-.305.565-2.687c.158-.367.297-.61.416-.733.218-.224.476-.336.774-.336.475 0 .961.295 1.457.886l2.528 3.297c.159.265.327.397.506.397h4.907c.595 0 .893-.153.893-.458a.601.601 0 0 0-.09-.305l-4.312-5.527c-.337-.427-.506-.885-.506-1.374 0-.488.159-.956.476-1.404.258-.407.758-1.084 1.502-2.03a45.301 45.301 0 0 0 1.948-2.657c.555-.824.922-1.572 1.1-2.244l.09-.397a.485.485 0 0 1-.03-.198.753.753 0 0 0-.03-.23h-4.67a1.63 1.63 0 0 0-.713.55l-.179.58c-.495 1.405-1.794 3.573-3.896 6.504-.416.407-.902.61-1.457.61Z" 
        />
    </symbol>

    
    <symbol  viewBox="0 0 31 31" id="whatsapp">
        <path d="m7.9058 24.8235 1.0896.6366A11.9704 11.9704 0 0 0 15.05 27.09c2.3813 0 4.7091-.7062 6.6891-2.0291a12.0408 12.0408 0 0 0 5.1196-12.3598 12.0405 12.0405 0 0 0-9.4598-9.4598A12.04 12.04 0 0 0 3.01 15.05c0 2.1612.5674 4.2336 1.6314 6.0561l.6352 1.0896-.9828 3.6135 3.612-.9857ZM.006 30.1l2.0348-7.4769A14.9805 14.9805 0 0 1 0 15.05C0 6.7379 6.738 0 15.05 0 23.3621 0 30.1 6.7379 30.1 15.05c0 8.3121-6.7379 15.05-15.05 15.05a14.9806 14.9806 0 0 1-7.5701-2.0393L.006 30.1ZM9.6185 7.9885c.2016-.015.4048-.015.6065-.006.0813.006.1625.015.2438.0241.2393.027.5027.173.5915.3747a128.1247 128.1247 0 0 1 1.3063 3.0702c.0933.2288.0376.5223-.14.8082a6.5646 6.5646 0 0 1-.3958.5599c-.17.2182-.5358.6185-.5358.6185s-.149.1776-.0918.3989c.0211.0842.0903.2061.1535.3085l.0888.143c.3853.6426.903 1.2943 1.5351 1.9083.1806.1746.3567.3537.5464.5207a9.0407 9.0407 0 0 0 2.3628 1.505l.0075.003c.1279.0557.1927.0858.3793.1656.0933.0391.1896.0737.2874.0993a.5266.5266 0 0 0 .5524-.1956c1.0896-1.3199 1.1889-1.4057 1.198-1.4057v.003a.7244.7244 0 0 1 .5688-.1911c.0903.006.1821.0226.2664.0602.7992.3657 2.107.9361 2.107.9361l.8759.3928c.1475.0707.2815.2378.286.3988.006.1008.015.2634-.0196.5614-.0481.3898-.1655.8578-.2829 1.1031a1.7374 1.7374 0 0 1-.3161.4546 3.5802 3.5802 0 0 1-.4966.4334 5.6636 5.6636 0 0 1-.1881.1354 7.5308 7.5308 0 0 1-.5765.3311 2.9938 2.9938 0 0 1-1.2536.3462c-.2784.015-.5569.0361-.8368.0211-.012 0-.8548-.131-.8548-.131a14.218 14.218 0 0 1-5.7792-3.0792c-.3402-.2995-.6547-.6216-.9768-.9421-1.3394-1.332-2.3508-2.7692-2.9648-4.1267a5.2227 5.2227 0 0 1-.4982-2.1281 4.107 4.107 0 0 1 .8488-2.5284c.1099-.1415.2137-.289.3928-.459.1912-.1806.3116-.277.4425-.3432.1741-.0872.364-.1384.5584-.1505l.0015.0015Z" 
        />
    </symbol>

     <symbol  viewBox="0 0 25 23" id="rate" fill="none">
        <path d="M12.6268 18.0143L5.41618 22.3656L7.37647 14.2449L0.960754 8.81491L9.38215 8.14829L12.6268 0.439671L15.8715 8.14829L24.2941 8.81491L17.8771 14.2449L19.8374 22.3656L12.6268 18.0143Z" fill="#FFCE7F"/>
    </symbol>

</svg>